<svg xmlns="http://www.w3.org/2000/svg" width="388.94" height="181.07" viewBox="0 0 388.94 181.07"><defs><style>.cls-1{fill:#d53f66;}.cls-2{fill:#d9dfe8;}.cls-3{fill:#969a9f;}.cls-4{fill:#0e1337;}.cls-5{fill:#e5e8ef;}.cls-6{fill:none;stroke:#e5e8ef;stroke-linejoin:bevel;}.cls-7{fill:#121326;}</style></defs><title>img_eyes_1</title><g id="Layer_2" data-name="Layer 2"><g id="eyes-open"><circle class="cls-1" cx="81.42" cy="99.65" r="81.42"/><circle class="cls-2" cx="95.91" cy="84.91" r="84.91"/><path class="cls-3" d="M139.17,154.64A103.21,103.21,0,0,1,40.83,20.32,84.89,84.89,0,0,0,144.53,154.5C142.75,154.59,141,154.64,139.17,154.64Z"/><circle class="cls-4" cx="94.97" cy="84.15" r="67.18"/><path class="cls-5" d="M119.48,49.33c-11.34-4.64-18.66-4.66-23.33,2S92,66.17,99.32,68.83s10-2,8.16,11.17c-1.37,9.9,14.67,12.67,21.34,4.67S134.15,55.33,119.48,49.33Z"/><path class="cls-5" d="M87.48,82.67c-7.59,1.68-3.33,16.66,4,18.66s12.67-4,11.34-10S93.48,81.33,87.48,82.67Z"/><path class="cls-6" d="M140.68,70s-1.28,14-4.47,18.67-13.39,6.66-13.39,6.66,9.57,3.34,12.76,9.34S138.76,122,138.76,122s2-17.65,6.06-21.42,11.25-5,11.25-5-7.22-.27-11.72-5.75C141,85.82,139.87,78.18,140.68,70Z"/><path class="cls-7" d="M99.81,151.16a68.93,68.93,0,0,0,8.58-1.19A103.19,103.19,0,0,1,36,51.91a67.18,67.18,0,0,0,63.78,99.25Z"/><circle class="cls-1" cx="290.69" cy="100.35" r="79.62"/><circle class="cls-2" cx="305.9" cy="87.05" r="83.03"/><path class="cls-3" d="M342.93,158.23A100.9,100.9,0,0,1,257,20a83,83,0,0,0,91.2,138.49C346.44,158.45,344.69,158.37,342.93,158.23Z"/><circle class="cls-4" cx="305.04" cy="86.24" r="65.7"/><path class="cls-5" d="M331.52,54.1c-10.72-5.36-17.86-5.93-22.9.23s-5.16,14.15,1.8,17.3,9.89-1.22,7.13,11.49c-2.07,9.55,13.37,13.43,20.46,6.12S345.38,61,331.52,54.1Z"/><path class="cls-5" d="M297.86,84.24c-7.53,1.08-4.49,16,2.52,18.5s12.64-3,11.79-8.92S303.8,83.38,297.86,84.24Z"/><path class="cls-6" d="M350.66,75.82s-2.28,13.55-5.73,17.87-13.56,5.51-13.56,5.51,9.09,4,11.75,10S345,126.38,345,126.38s3.23-17.06,7.49-20.44,11.33-4,11.33-4-7-.8-11-6.47C349.85,91.27,349.27,83.73,350.66,75.82Z"/><path class="cls-7" d="M304.82,151.93a65.54,65.54,0,0,0,8.45-.53A100.87,100.87,0,0,1,250,50.46a65.67,65.67,0,0,0,54.86,101.47Z"/></g></g></svg>