<svg xmlns="http://www.w3.org/2000/svg" width="378.48" height="89" viewBox="0 0 378.48 89"><defs><style>.cls-1{fill:#f05379;}.cls-2{fill:#ab3a56;}.cls-3{fill:#231f20;}</style></defs><title>img_eyelids</title><g id="Layer_2" data-name="Layer 2"><g id="eyelids-half"><path class="cls-1" d="M169.81,84.44A84.91,84.91,0,0,0,0,84.91c0,.49,0,1,0,1.47,11.9-7.81,38.22-20.55,83.28-20.55C124.82,65.83,154.07,76.63,169.81,84.44Z"/><path class="cls-2" d="M27.44,73.74a103.73,103.73,0,0,1,2.39-53.42h0c-1.11.94-2.18,1.91-3.24,2.9a3.07,3.07,0,0,1-.26.25c-1,.92-1.91,1.87-2.83,2.83l-.32.34c-.91,1-1.79,1.94-2.65,2.94l-.29.34q-2.1,2.47-4,5.09c-.22.31-.43.62-.65.92-.59.84-1.17,1.68-1.73,2.53l-.78,1.23c-.47.75-.94,1.5-1.39,2.27-.29.49-.57,1-.85,1.48s-.7,1.26-1,1.89-.68,1.3-1,2c-.21.44-.43.88-.64,1.33-.41.87-.81,1.74-1.19,2.62-.18.41-.35.82-.52,1.23-.38.93-.76,1.87-1.11,2.82-.13.35-.26.71-.38,1.06-.37,1-.72,2-1,3.08-.09.26-.16.52-.24.78q-.46,1.51-.87,3.06l-.15.56c-.3,1.16-.56,2.33-.81,3.51l-.15.71c-.24,1.17-.44,2.35-.63,3.53l-.12.74c-.17,1.2-.33,2.4-.45,3.62,0,.22,0,.44-.07.67C.29,77.86.19,79.12.12,80.39c0,.15,0,.31,0,.46C0,82.2,0,83.55,0,84.91c0,.49,0,1,0,1.47A111.88,111.88,0,0,1,27.44,73.74Z"/><path class="cls-3" d="M0,83.33c0,.53,0,1,0,1.58,0,1,0,2.1.08,3.15,4.37-2.89,33.25-20.73,79.24-20.73,44.74,0,82.76,16,90.45,19.4,0-.61,0-1.21,0-1.82,0-.86,0-1.71-.07-2.56-10.77-4.64-47.57-19-90.43-19C36.61,63.33,8.74,78,0,83.33Z"/><path class="cls-1" d="M378.47,85.44a83.56,83.56,0,0,0-167.12.46c0,.49,0,1,0,1.45,11.72-7.69,37.62-20.22,82-20.22C334.19,67.13,363,77.75,378.47,85.44Z"/><path class="cls-2" d="M238.88,74.12a100.85,100.85,0,0,1,2.33-52h0c-1.07.92-2.12,1.86-3.14,2.83l-.26.24c-.94.9-1.86,1.82-2.75,2.76l-.32.33c-.88.93-1.74,1.89-2.58,2.86l-.28.33c-1.37,1.6-2.67,3.26-3.91,5l-.64.9q-.85,1.22-1.68,2.46c-.26.39-.51.79-.76,1.19-.46.73-.91,1.46-1.35,2.21-.28.48-.56,1-.83,1.45s-.68,1.22-1,1.83-.66,1.27-1,1.91c-.21.43-.43.86-.63,1.29-.4.85-.79,1.7-1.16,2.56-.17.39-.34.79-.5,1.19-.38.91-.74,1.82-1.08,2.75-.13.34-.25.69-.38,1-.35,1-.69,2-1,3-.08.25-.15.5-.23.75-.3,1-.58,2-.84,3,0,.19-.11.37-.15.55-.29,1.13-.55,2.27-.79,3.42l-.15.69c-.23,1.14-.43,2.28-.61,3.44,0,.24-.08.48-.11.72-.18,1.16-.33,2.34-.45,3.52l-.06.65c-.12,1.22-.22,2.45-.28,3.68,0,.15,0,.3,0,.46-.07,1.3-.1,2.62-.1,3.94,0,.48,0,1,0,1.44A108.59,108.59,0,0,1,238.88,74.12Z"/><path class="cls-3" d="M211.39,84.35c0,.52,0,1,0,1.55,0,1,0,2.07.07,3.1,4.3-2.84,32.73-20.4,78-20.4,44,0,81.45,15.7,89,19.09,0-.59,0-1.19,0-1.79,0-.84,0-1.68-.06-2.51-10.61-4.58-46.82-18.72-89-18.72C247.38,64.67,220,79.11,211.39,84.35Z"/></g></g></svg>