<svg xmlns="http://www.w3.org/2000/svg" width="471.42" height="80.45" viewBox="0 0 471.42 80.45"><defs><style>.cls-1,.cls-2{fill:none;stroke-miterlimit:10;stroke-width:2px;}.cls-1{stroke:#e0385c;}.cls-2{stroke:#ea899b;}</style></defs><title>img_lashs_up</title><g id="Layer_2" data-name="Layer 2"><g id="lashes"><path class="cls-1" d="M21.29.2s4.25,21,17.25,31,32.25,14,32.25,14"/><path class="cls-1" d="M.79,30.45s15.5,20.25,31,23.25,32,0,32,0"/><path class="cls-1" d="M16.54,74.2A30.83,30.83,0,0,0,36,79a54.79,54.79,0,0,0,19.75-6.5"/><path class="cls-2" d="M450.13.53s-4.25,21-17.25,31-32.25,14-32.25,14"/><path class="cls-2" d="M470.63,30.78S455.13,51,439.63,54s-32,0-32,0"/><path class="cls-2" d="M454.88,74.53a30.83,30.83,0,0,1-19.5,4.75,54.79,54.79,0,0,1-19.75-6.5"/></g></g></svg>