<?xml version="1.0" encoding="utf-8"?>
<!-- Generator: Adobe Illustrator 21.0.2, SVG Export Plug-In . SVG Version: 6.00 Build 0)  -->
<svg version="1.1" id="Layer_1" xmlns="http://www.w3.org/2000/svg" xmlns:xlink="http://www.w3.org/1999/xlink" x="0px" y="0px"
	 width="177px" height="125px" viewBox="0 0 177 125" enable-background="new 0 0 177 125" xml:space="preserve">
<g>
	<path fill="#00979D" d="M174.305,43.974c0-22.465-18.949-40.74-42.24-40.74c-2.15,0-4.336,0.147-6.498,0.46
		c-18.1,2.581-30.211,15.601-36.99,25.585C81.773,19.294,69.662,6.274,51.568,3.693c-2.162-0.313-4.354-0.46-6.498-0.46
		c-23.303,0-42.246,18.275-42.246,40.74c0,22.468,18.943,40.732,42.229,40.732c2.162,0,4.354-0.135,6.516-0.445
		c18.094-2.596,30.205-15.621,37.008-25.614c6.779,9.993,18.891,23.019,36.99,25.614c2.162,0.311,4.348,0.445,6.516,0.445
		C155.367,84.705,174.305,66.441,174.305,43.974 M49.518,69.954c-1.477,0.214-2.982,0.325-4.465,0.325
		c-15.316,0-27.785-11.812-27.785-26.306c0-14.502,12.469-26.314,27.803-26.314c1.471,0,2.971,0.12,4.453,0.322
		c17.051,2.435,27.492,19.251,31.031,25.983C77.01,50.715,66.574,67.523,49.518,69.954 M96.586,43.974
		c3.539-6.741,13.975-23.558,31.025-25.992c1.477-0.202,2.988-0.322,4.453-0.322c15.328,0,27.797,11.812,27.797,26.314
		c0,14.493-12.469,26.306-27.779,26.306c-1.477,0-2.982-0.111-4.471-0.325C110.56,67.523,100.113,50.7,96.586,43.974"/>
	<rect x="33.428" y="39.992" fill="#00979D" width="25.365" height="8.174"/>
	<polygon fill="#00979D" points="134.877,48.166 143.449,48.166 143.449,39.992 134.877,39.992 134.877,31.391 126.68,31.391 
		126.68,39.992 118.096,39.992 118.096,48.166 126.68,48.166 126.68,56.768 134.877,56.768 	"/>
	<path fill="#00979D" d="M14.824,96.822l-7.406,23.596h5.976l1.207-4.828h6.785l1.307,4.828h6.205l-7.512-23.596H14.824z
		 M15.721,111.058l2.144-8.643l2.326,8.643H15.721z"/>
	<path fill="#00979D" d="M51.141,104.703c0-4.535-2.461-7.881-8.994-7.881h-9.51v23.596h5.842v-7.477h2.941l3.545,7.477h6.902
		l-4.605-8.64C49.834,110.398,51.141,107.943,51.141,104.703 M41.572,108.257h-3.094v-6.659h2.977c2.725,0,3.469,1.046,3.469,3.138
		C44.924,107.357,43.594,108.257,41.572,108.257"/>
	<path fill="#00979D" d="M63.592,96.822h-7.728v23.596h7.764c10.014,0,11.713-6.434,11.713-12.012
		C75.34,100.997,72.41,96.822,63.592,96.822 M63.914,115.59h-2.209v-13.995h1.705c5.221,0,5.695,2.458,5.695,7.069
		C69.105,112.651,68.748,115.59,63.914,115.59"/>
	<path fill="#00979D" d="M92.631,111.233c0,3.595-0.984,4.784-3.639,4.784c-2.209,0-3.598-0.902-3.598-4.816V96.822h-5.836v15.469
		c0,7.143,5.156,8.49,9.188,8.49c4.172,0,9.504-1.482,9.504-8.455V96.822h-5.619V111.233z"/>
	<polygon fill="#00979D" points="103.471,101.65 109.57,101.65 109.57,115.59 103.471,115.59 103.471,120.418 121.553,120.418 
		121.553,115.59 115.412,115.59 115.412,101.65 121.553,101.65 121.553,96.822 103.471,96.822 	"/>
	<polygon fill="#00979D" points="140.385,110.987 132.738,96.822 126.369,96.822 126.369,120.418 131.9,120.418 131.859,105.318 
		139.916,120.418 145.828,120.418 145.828,96.822 140.385,96.822 	"/>
	<path fill="#00979D" d="M159.592,96.515c-7.154,0-9.873,5.25-9.873,12.366c0,7.805,3.123,11.9,9.902,11.9
		c7.588,0,10.084-5.329,10.084-12.155C169.705,99.62,166.307,96.515,159.592,96.515 M159.621,116.018
		c-3.369,0-3.703-2.385-3.703-7.137c0-5.766,0.551-7.623,3.674-7.623c3.445,0,3.914,1.605,3.914,7.368
		C163.506,114.066,163.037,116.018,159.621,116.018"/>
	<g>
		<path fill="#00979D" d="M174.193,5.703c-0.24-0.557-0.557-1.034-0.967-1.438c-0.398-0.404-0.873-0.724-1.412-0.967
			c-0.545-0.237-1.131-0.358-1.758-0.358c-0.633,0-1.219,0.12-1.758,0.358c-0.545,0.243-1.02,0.562-1.418,0.967
			c-0.404,0.404-0.727,0.882-0.967,1.438c-0.24,0.551-0.357,1.157-0.357,1.813c0,0.63,0.117,1.227,0.357,1.793
			c0.24,0.568,0.562,1.052,0.967,1.453c0.398,0.407,0.873,0.729,1.418,0.97c0.539,0.24,1.125,0.357,1.758,0.357
			c0.627,0,1.213-0.117,1.758-0.357c0.539-0.24,1.014-0.562,1.412-0.97c0.41-0.401,0.727-0.885,0.967-1.453
			c0.234-0.566,0.357-1.163,0.357-1.793C174.551,6.86,174.428,6.254,174.193,5.703z M173.203,8.902
			c-0.176,0.428-0.428,0.8-0.744,1.119c-0.322,0.322-0.686,0.58-1.09,0.768c-0.404,0.19-0.844,0.284-1.312,0.284
			c-0.475,0-0.92-0.094-1.336-0.284c-0.416-0.188-0.779-0.445-1.09-0.768c-0.305-0.319-0.545-0.691-0.727-1.119
			c-0.176-0.428-0.264-0.891-0.264-1.386c0-0.498,0.088-0.967,0.264-1.406c0.182-0.439,0.422-0.817,0.727-1.137
			c0.311-0.319,0.674-0.571,1.09-0.747c0.416-0.179,0.861-0.27,1.336-0.27c0.469,0,0.908,0.091,1.312,0.27
			c0.404,0.176,0.768,0.428,1.09,0.747c0.316,0.319,0.568,0.697,0.744,1.137c0.176,0.439,0.264,0.908,0.264,1.406
			C173.467,8.012,173.379,8.475,173.203,8.902z"/>
		<path fill="#00979D" d="M171.035,7.959c0.258-0.129,0.451-0.305,0.592-0.53c0.135-0.226,0.205-0.483,0.205-0.756
			c0-0.428-0.152-0.803-0.457-1.116c-0.299-0.313-0.815-0.475-1.547-0.475c-0.275,0-0.521,0.006-0.738,0.021
			c-0.217,0.015-0.422,0.032-0.621,0.059v4.497h1.131V8.185h0.457l0.791,1.474h1.289L171.035,7.959z M169.904,7.35
			c-0.152,0-0.27-0.009-0.34-0.035v-1.21c0.07-0.023,0.199-0.038,0.375-0.038c0.48,0,0.721,0.211,0.721,0.642
			C170.66,7.139,170.408,7.35,169.904,7.35z"/>
	</g>
</g>
</svg>
