<svg xmlns="http://www.w3.org/2000/svg" width="195.59" height="99.05" viewBox="0 0 195.59 99.05"><defs><style>.cls-1{fill:#e7446a;}.cls-2{fill:#388bbf;}.cls-3{fill:#2e81b0;}.cls-4,.cls-5{fill:none;stroke-linecap:round;stroke-miterlimit:10;stroke-width:3px;}.cls-4{stroke:#0e1335;}.cls-5{stroke:#bec8ca;}</style></defs><title>img_lips</title><g id="Layer_2" data-name="Layer 2"><g id="mouth"><path class="cls-1" d="M179.59,18.27c-7.7-8.27-20.25-6.75-38.25,4.75C119.43,37,113.76,40.27,98,40.27c-.55,0-1.11,0-1.66,0H96c-.55,0-1.1,0-1.66,0-15.75,0-21.75-3.75-42.25-19.75s-31.75-13.5-41-7c-15.35,10.79-15,33,2.5,53,19,21.69,46,32.5,79.25,32.5,1.09,0,2.2,0,3.33-.08A28.8,28.8,0,0,0,99.5,99c31.09-2.25,56.22-13.47,75.09-35.25C190.84,45,189.84,29.27,179.59,18.27Z"/><path class="cls-2" d="M188.09,9.77c-7.7-8.27-20.25-6.75-38.25,4.75-21.91,14-27.58,17.25-43.34,17.25-.55,0-1.11,0-1.66,0h-.34c-.55,0-1.1,0-1.66,0C87.09,31.77,81.09,28,60.59,12s-31.75-13.5-41-7c-15.35,10.79-15,33,2.5,53,19,21.69,46,32.5,79.25,32.5,1.09,0,2.2,0,3.33-.08a28.8,28.8,0,0,0,3.33.08c31.09-2.25,56.22-13.47,75.09-35.25C199.34,36.52,198.34,20.77,188.09,9.77Z"/><path class="cls-3" d="M169.34,16.77c-8,1.5-47.25,25-64.25,27.5S77.84,39,58.34,24.27,29.59,9.77,19.59,13.52a19.08,19.08,0,0,0-11,10.86C7.77,34.65,12.18,46.69,22.09,58c19,21.69,46,32.5,79.25,32.5,1.09,0,2.2,0,3.33-.08a28.8,28.8,0,0,0,3.33.08c31.09-2.25,56.22-13.47,75.09-35.25a65.1,65.1,0,0,0,7.26-10C195.22,18.32,176.78,15.38,169.34,16.77Z"/><path class="cls-4" d="M27.09,34s10.5,4.75,13-1-1.75-12-1.75-12"/><path class="cls-4" d="M165.84,35.77s-10,22-53.25,28.75c-47.09,7.35-73.5-30-73.5-30"/><path class="cls-4" d="M165.84,23.77c-.25.75-7.25,22.25,11.5,9.25"/><path class="cls-5" d="M28.72,57.4s5.87,7.12,11,10.12"/><path class="cls-5" d="M143.22,24.65s10.87-8,19.25-11.38"/><path class="cls-5" d="M176.22,10.27a20.86,20.86,0,0,0-7.38.75"/></g></g></svg>