<svg xmlns="http://www.w3.org/2000/svg" width="437.67" height="64.53" viewBox="0 0 437.67 64.53"><defs><style>.cls-1,.cls-2{fill:none;stroke-miterlimit:10;stroke-width:2px;}.cls-1{stroke:#ea899b;}.cls-2{stroke:#e0385c;}</style></defs><title>img_lashes_down</title><g id="Layer_2" data-name="Layer 2"><g id="eyes-closed"><path class="cls-1" d="M379.33,1.53s17.28-4.27,35,11.34c22.34,19.66,22.34,51.66,22.34,51.66"/><path class="cls-1" d="M385.33,11.53A39.84,39.84,0,0,1,414.67,27.2c12,15.67,12,31,12,31"/><path class="cls-1" d="M391.67,26.2s18,2,24.66,26.67"/><path class="cls-2" d="M58.33,1.53s-17.28-4.27-35,11.34C1,32.53,1,64.53,1,64.53"/><path class="cls-2" d="M52.33,11.53A39.83,39.83,0,0,0,23,27.2c-12,15.67-12,31-12,31"/><path class="cls-2" d="M46,26.2s-18,2-24.67,26.67"/></g></g></svg>